<?xml version="1.0" standalone="no"?><!DOCTYPE svg PUBLIC "-//W3C//DTD SVG 1.1//EN" "http://www.w3.org/Graphics/SVG/1.1/DTD/svg11.dtd"><svg t="1684222124271" class="icon" viewBox="0 0 1024 1024" version="1.1" xmlns="http://www.w3.org/2000/svg" p-id="6461" xmlns:xlink="http://www.w3.org/1999/xlink" width="200" height="200"><path d="M264.8064 309.6576L573.44 479.6416l308.6336-169.7792a20.48 20.48 0 0 1 20.48 1.024l-1.4336-1.2288-317.8496-175.104a20.48 20.48 0 0 0-20.48 0L245.76 309.6576l-1.2288 1.024a20.48 20.48 0 0 1 20.2752-1.024zM240.64 313.344l-1.024 1.6384zM911.5648 322.7648a12.4928 12.4928 0 0 0 0-1.8432 20.48 20.48 0 0 1 0 1.8432zM908.288 315.8016l-1.024-1.4336zM236.3392 319.8976a12.4928 12.4928 0 0 0 0 1.8432 20.48 20.48 0 0 1 0-1.8432zM912.384 327.68a20.48 20.48 0 0 1-10.4448 19.0464L593.92 515.072v417.9968a20.48 20.48 0 0 1-11.8784 18.432h1.2288L901.12 775.7824a19.0464 19.0464 0 0 0 2.048-1.6384 20.48 20.48 0 0 0 3.2768-2.6624 32.768 32.768 0 0 0 3.8912-6.7584 20.48 20.48 0 0 0 0-4.096 19.2512 19.2512 0 0 0 0-2.6624V327.68a4.3008 4.3008 0 0 0 2.048 0zM552.96 933.0688V515.072l-307.2-169.3696a20.48 20.48 0 0 1-10.4448-19.0464V757.76a19.2512 19.2512 0 0 0 0 2.6624 20.48 20.48 0 0 0 0 4.096 32.768 32.768 0 0 0 3.8912 6.5536 20.48 20.48 0 0 0 3.2768 2.6624 19.2512 19.2512 0 0 0 2.048 1.6384l318.6688 175.3088h1.2288a20.48 20.48 0 0 1-11.4688-17.6128zM573.44 953.5488a20.48 20.48 0 0 0 6.9632-1.4336 20.48 20.48 0 0 1-6.9632 1.4336zM573.44 953.5488a20.48 20.48 0 0 1-6.9632-1.4336 20.48 20.48 0 0 0 6.9632 1.4336z" fill="#1677FF" p-id="6462"></path></svg>