<?xml version="1.0" standalone="no"?><!DOCTYPE svg PUBLIC "-//W3C//DTD SVG 1.1//EN" "http://www.w3.org/Graphics/SVG/1.1/DTD/svg11.dtd"><svg t="1684222255164" class="icon" viewBox="0 0 1024 1024" version="1.1" xmlns="http://www.w3.org/2000/svg" p-id="11255" xmlns:xlink="http://www.w3.org/1999/xlink" width="200" height="200"><path d="M701.44 913.408c-1.024 0-3.584-1.024-3.584-3.584v-99.84h-177.152c-14.336 0-26.112-11.776-26.112-26.112s11.776-26.112 26.112-26.112h177.152v-99.84c0-2.56 2.048-3.584 3.584-3.584 0.512 0 1.536 0 2.048 0.512l177.152 126.464c1.024 0.512 1.536 1.536 1.536 3.072 0 1.024-0.512 2.048-1.536 2.56l-177.152 126.464h-2.048z" fill="#1677FF" p-id="11256"></path><path d="M878.592 299.52v-2.048c0-1.024-0.512-2.048-0.512-3.072l-0.512-1.536c0-1.024-0.512-1.536-1.024-2.56l-0.512-1.024-0.512-1.024-0.512-0.512-0.512-0.512-0.512-0.512-2.048-2.048-0.512-1.024-1.024-1.024-225.28-225.28-1.024-1.024-2.048-1.536-1.024-0.512h-0.512l-2.048-1.024-1.536-0.512c-1.536-0.512-2.56-1.024-3.584-1.536-1.024 0-2.048-0.512-3.072-0.512H180.224c-25.6 0-46.08 20.992-46.08 46.08V880.64c0 25.6 20.992 46.08 46.08 46.08h253.952c14.336 0 26.112-11.776 26.112-26.112s-11.776-26.624-26.112-26.624H186.368V101.888h414.208v199.168c0 14.336 11.776 26.112 26.112 26.112h199.168v251.904c0 14.336 11.776 26.112 26.112 26.112s26.112-11.776 26.112-26.112l0.512-279.552z m-225.792-24.576V139.264L788.48 274.944h-135.68z" fill="#1677FF" p-id="11257"></path><path d="M276.48 341.504h199.68c15.872 0 29.184-13.312 29.184-29.184s-13.312-29.184-29.184-29.184H276.48c-15.872 0-29.184 13.312-29.184 29.184s13.312 29.184 29.184 29.184zM276.48 472.064h276.48c15.872 0 29.184-13.312 29.184-29.184s-13.312-29.184-29.184-29.184H276.48c-15.872 0-29.184 13.312-29.184 29.184s13.312 29.184 29.184 29.184zM645.12 544.256H276.48c-15.872 0-29.184 13.312-29.184 29.184s13.312 29.184 29.184 29.184h368.64c15.872 0 29.184-13.312 29.184-29.184s-13.312-29.184-29.184-29.184z" fill="#1677FF" p-id="11258"></path></svg>