<?xml version="1.0" standalone="no"?><!DOCTYPE svg PUBLIC "-//W3C//DTD SVG 1.1//EN" "http://www.w3.org/Graphics/SVG/1.1/DTD/svg11.dtd"><svg t="1684222100482" class="icon" viewBox="0 0 1024 1024" version="1.1" xmlns="http://www.w3.org/2000/svg" p-id="6203" xmlns:xlink="http://www.w3.org/1999/xlink" width="200" height="200"><path d="M573.44 523.4688a20.48 20.48 0 0 1-9.8304-2.4576L245.76 345.7024a20.48 20.48 0 0 1 0-35.84l317.8496-175.3088a20.48 20.48 0 0 1 20.48 0L901.12 309.6576a20.48 20.48 0 0 1 0 35.84l-317.8496 175.3088a20.48 20.48 0 0 1-9.8304 2.6624zM297.3696 327.68L573.44 479.6416 849.5104 327.68 573.44 175.7184zM573.44 953.5488a20.48 20.48 0 0 1-9.8304-2.4576L245.76 775.7824a20.48 20.48 0 1 1 20.48-35.84l307.2 169.7792 308.6336-169.7792a20.48 20.48 0 1 1 20.48 35.84l-319.2832 175.104a20.48 20.48 0 0 1-9.8304 2.6624z" fill="#1677FF" p-id="6204"></path><path d="M254.7712 778.24a20.48 20.48 0 0 1-20.48-20.48V327.68a20.48 20.48 0 0 1 40.96 0v430.08a20.48 20.48 0 0 1-20.48 20.48zM892.1088 778.24a20.48 20.48 0 0 1-20.48-20.48V327.68a20.48 20.48 0 0 1 40.96 0v430.08a20.48 20.48 0 0 1-20.48 20.48zM573.44 953.5488a20.48 20.48 0 0 1-20.48-20.48v-430.08a20.48 20.48 0 1 1 40.96 0v430.08a20.48 20.48 0 0 1-20.48 20.48z" fill="#1677FF" p-id="6205"></path></svg>